HIERARCHY
ROOT Hips
{
	OFFSET 0.00000 0.00000 0.00000
	CHANNELS 6 Xposition Yposition Zposition Yrotation Zrotation Xrotation 
	JOINT Lumbar
	{
		OFFSET 0 0 0
		CHANNELS 3 Zrotation Xrotation Yrotation
		JOINT Neck
		{
			OFFSET 0.00 0.2701 0.00
			CHANNELS 3 Zrotation Xrotation Yrotation
			End Site
			{
				OFFSET 0.00 0.1379 0.00
			}
		}
		JOINT RightShoulder
		{
			OFFSET 0.0119 0.2289 0.1181
			CHANNELS 3 Zrotation Xrotation Yrotation
			JOINT RightElbow
			{
				OFFSET 0.00 -0.1475 0.00
				CHANNELS 2 Zrotation Yrotation
				JOINT RightWrist
				{
					OFFSET 0.00 -0.1605 0.00
					CHANNELS 2 Zrotation Xrotation
					End Site
					{
						OFFSET 0.0040 -0.1068 0.0006
					}
				}
			}
		}
		JOINT LeftShoulder
		{
			OFFSET 0.0119 0.2289 -0.1181
			CHANNELS 3 Zrotation Xrotation Yrotation
			JOINT LeftElbow
			{
				OFFSET 0.00 -0.1475 0.00
				CHANNELS 2 Zrotation Yrotation
				JOINT LeftWrist
				{
					OFFSET 0.00 -0.1605 0.00
					CHANNELS 2 Zrotation Xrotation
					End Site
					{
						OFFSET 0.0040 -0.1068 -0.0006
					}
				}
			}
		}
	}
	JOINT RightHip
	{
		OFFSET 0.0316 -0.0424 0.0458
		CHANNELS 3 Zrotation Xrotation Yrotation
		JOINT RightKnee
		{
			OFFSET 0.00 -0.2438 0.00
			CHANNELS 1 Zrotation
			JOINT RightAnkle
			{
				OFFSET 0.00 -0.2449 0.00
				CHANNELS 3 Zrotation Xrotation Yrotation
				End Site
				{
					OFFSET 0.1237 -0.0542 0.0051
				}
			}
		}
	}
	JOINT LeftHip
	{
		OFFSET 0.0316 -0.0424 -0.0458
		CHANNELS 3 Zrotation Xrotation Yrotation
		JOINT LeftKnee
		{
			OFFSET 0.00 -0.2438 0.00
			CHANNELS 1 Zrotation
			JOINT LeftAnkle
			{
				OFFSET 0.00 -0.2449 0.00
				CHANNELS 3 Zrotation Xrotation Yrotation
				End Site
				{
					OFFSET 0.1237 -0.0542 -0.0051
				}
			}
		}
	}
}
MOTION
Frames: 16
Frame Time: 0.02
0.00132 0.0004 -0.0008 30.82845 -29.219 -6.45279 49.1955 1.76572 -3.5554 -2.93748 -2.30265 -0.4924 -41.05953 -10.11302 -20.58445 33.51536 90.15396 3.75851 1.90301 -47.53401 -6.94662 45.49244 42.67572 -174.66939 35.21249 -14.83204 42.38712 0.2322 -7.88601 -19.31233 -6.22749 -2.56097 -3.46733 44.51595 6.18914 17.75399 -24.71236 -6.61964 0.76882 2.62013
0.00143 0.00041 -0.0003 31.0814 -29.195 -6.41764 49.12321 1.79845 -3.50412 -2.94483 -2.36421 -0.55354 -41.21943 -10.26069 -20.4482 33.45693 90.45541 3.9544 1.91736 -47.6461 -5.55529 41.97664 42.62673 -167.32603 32.90331 -13.54767 42.33879 0.18263 -8.23171 -19.32096 -6.22283 -2.54812 -3.45954 44.54298 6.03666 17.0458 -24.70069 -6.60677 0.82207 2.64571
0.00155 0.00043 0.00019 31.33392 -29.17107 -6.38255 49.05095 1.83108 -3.45307 -2.95162 -2.42567 -0.61449 -41.37691 -10.40794 -20.31461 33.39866 90.76453 4.1525 1.93291 -47.75476 -4.16857 38.47404 42.57753 -160.01281 30.60413 -12.26839 42.29068 0.13319 -8.57657 -19.32959 -6.21819 -2.53533 -3.45179 44.57005 5.88467 16.33991 -24.68906 -6.59395 0.87512 2.6712
0.00167 0.00045 0.00068 31.58613 -29.14714 -6.3475 48.97887 1.86371 -3.40195 -2.95889 -2.48705 -0.67544 -41.53608 -10.55508 -20.17936 33.34041 91.06671 4.34831 1.94746 -47.86611 -2.78176 34.96985 42.52865 -152.69378 28.30268 -10.98824 42.24251 0.08376 -8.92126 -19.3382 -6.21354 -2.52252 -3.44403 44.59701 5.73267 15.63394 -24.67743 -6.58112 0.9282 2.69671
0.00179 0.00046 0.00117 31.83868 -29.12314 -6.31242 48.90679 1.89644 -3.35061 -2.96684 -2.54852 -0.73658 -41.69817 -10.70287 -20.04003 33.28201 91.35726 4.54069 1.96021 -47.98175 -1.38973 31.45049 42.48006 -145.34046 25.98974 -9.70237 42.19413 0.03423 -9.26669 -19.3468 -6.20889 -2.50965 -3.43623 44.62393 5.58017 14.92559 -24.66575 -6.56824 0.98149 2.72231
0.0019 0.00048 0.00167 32.09112 -29.09936 -6.27729 48.83413 1.92885 -3.30017 -2.97114 -2.60996 -0.79716 -41.84586 -10.84911 -19.91818 33.22403 91.7049 4.75065 1.98158 -48.07559 -0.01397 27.98267 42.42953 -138.11114 23.71937 -8.43686 42.14657 -0.01502 -9.6103 -19.3555 -6.20426 -2.49705 -3.42859 44.6513 5.42924 14.22486 -24.65422 -6.55557 1.03403 2.74756
0.00202 0.00049 0.00215 32.34344 -29.07517 -6.2423 48.76284 1.96187 -3.2479 -2.98301 -2.67136 -0.85878 -42.02288 -10.99767 -19.76284 33.16527 91.93939 4.92554 1.98593 -48.21391 1.39162 24.41813 42.38312 -130.64438 21.3671 -7.13248 42.09737 -0.0648 -9.95724 -19.36399 -6.19959 -2.48389 -3.42062 44.67767 5.27536 13.50976 -24.6424 -6.54247 1.088 2.77349
0.00214 0.00051 0.00265 32.59597 -29.05135 -6.20718 48.69007 1.99434 -3.19745 -2.98749 -2.73286 -0.91948 -42.17188 -11.14525 -19.63556 33.10721 92.27436 5.13182 2.00534 -48.30988 2.77225 20.937 42.33263 -123.38908 19.08805 -5.86267 42.04976 -0.11406 -10.30103 -19.37268 -6.19496 -2.47127 -3.41297 44.70508 5.12412 12.80756 -24.63087 -6.52977 1.14069 2.79881
0.00225 0.00052 0.00315 32.84852 -29.02799 -6.17188 48.61627 2.02612 -3.14869 -2.98447 -2.79427 -0.9789 -42.29025 -11.28711 -19.55417 33.05005 92.74916 5.38081 2.04593 -48.35887 4.11276 17.57971 42.27818 -116.4203 16.9072 -4.63983 42.00379 -0.16282 -10.64149 -19.38159 -6.19035 -2.45922 -3.40565 44.73333 4.97636 12.12226 -24.61961 -6.51755 1.19169 2.82332
0.0024 0.00055 0.00361 33.10025 -29.00202 -6.13754 48.55072 2.06182 -3.08863 -3.02917 -2.85555 -1.04523 -42.59568 -11.44831 -19.24362 32.98787 92.47074 5.39716 1.97298 -48.69252 5.65528 13.57562 42.2496 -107.88722 14.18751 -3.16088 41.94748 -0.21486 -11.00267 -19.38915 -6.18553 -2.44361 -3.39628 44.75545 4.80937 11.34308 -24.60655 -6.50257 1.25205 2.8523
0.00246 0.00054 0.00415 33.35411 -28.98152 -6.10126 48.46634 2.08925 -3.05339 -2.97033 -2.9175 -1.09724 -42.49974 -11.57732 -19.39402 32.93615 93.74772 5.89563 2.13413 -48.41676 6.78994 10.89418 42.16452 -102.60045 12.58778 -2.21324 41.91354 -0.25974 -11.31908 -19.39964 -6.18122 -2.4357 -3.39131 44.7913 4.68243 10.75987 -24.59744 -6.49338 1.29286 2.87195
0.00231 0.00045 0.00486 33.61063 -28.97657 -6.05908 48.34125 2.09402 -3.07843 -2.64798 -2.97793 -1.10745 -41.34328 -11.54615 -21.00802 32.91386 99.60782 7.79931 2.98829 -46.52082 6.63975 12.23254 41.93827 -106.7636 14.23246 -2.81403 41.93735 -0.28677 -11.52121 -19.41765 -6.17781 -2.44753 -3.39776 44.85917 4.6708 10.73723 -24.59809 -6.50047 1.2779 2.86491
0.00206 0.00034 0.00566 33.86982 -28.97708 -6.01512 48.19525 2.09061 -3.12956 -2.21788 -3.03959 -1.10371 -39.77453 -11.49575 -23.04843 32.90145 106.9661 10.16939 4.06752 -44.00162 6.10771 14.83377 41.65266 -114.09234 16.97111 -3.93284 41.98443 -0.30635 -11.6774 -19.43866 -6.17501 -2.4673 -3.4087 44.94209 4.69847 10.90738 -24.60299 -6.51331 1.24368 2.84868
0.00184 0.00023 0.00643 34.12995 -28.97465 -5.97231 48.05157 2.09075 -3.17419 -1.82358 -3.10299 -1.10799 -38.36983 -11.50133 -24.76342 32.88466 113.44004 12.27555 5.01151 -41.73568 5.86247 16.59312 41.38519 -119.61075 19.09599 -4.75389 42.02309 -0.32807 -11.84829 -19.45872 -6.17224 -2.48441 -3.41802 45.02159 4.70452 10.97411 -24.60657 -6.5232 1.21969 2.83735
0.00171 0.00013 0.00714 34.38127 -28.97388 -5.92785 47.93797 2.09104 -3.19739 -1.48447 -3.15699 -1.10523 -37.06949 -11.3083 -27.03337 32.8694 120.79815 14.6123 6.09766 -39.60177 5.15076 19.45701 41.15508 -126.67914 21.71089 -5.83394 42.05218 -0.35473 -12.04275 -19.47726 -6.16815 -2.49771 -3.4257 45.08586 4.72616 11.10696 -24.60727 -6.53441 1.18951 2.82299
0.00136 1e-05 0.00799 34.65123 -28.97131 -5.88667 47.75702 2.08975 -3.27001 -1.00507 -3.23046 -1.11373 -35.4456 -11.52329 -28.25053 32.85079 126.64209 16.56642 6.93784 -37.03672 5.3045 20.35636 40.83287 -131.30167 23.5701 -6.50388 42.10735 -0.3697 -12.18025 -19.49941 -6.16699 -2.52058 -3.43771 45.18643 4.72513 11.14905 -24.61535 -6.5444 1.16752 2.8127
